<?xml version="1.0" encoding="UTF-8"?>
<svg id="Capa_1" data-name="Capa 1" xmlns="http://www.w3.org/2000/svg" viewBox="0 0 773.91 469.95" >
  <path d="m418.16,105.78c-2.21-1.34-4.31-2.64-6.4-3.91-6.09-3.69-12.19-7.39-18.28-11.13-.89-.54-1.11-.14-1.18.64-.24,2.82-.45,5.62-.68,8.45-1.01,11.91-2.02,23.84-3.01,35.75-1.29,15.7-2.19,26.71-2.75,33.65-.28,3.58-.59,7.18-1.15,10.78-.14-1.46-.28-2.94-.42-4.4-1.34-16.1-2.68-32.19-4-48.29-.96-11.84-1.93-23.67-2.87-35.51-.12-1.53-.26-1.6-1.58-.82-7.81,4.73-15.63,9.46-23.44,14.19-.26.14-.49.42-.94.28.26-.96.92-1.69,1.41-2.49,4.45-7.39,8.9-14.78,13.39-22.12.64-1.06.07-1.22-.73-1.34,3.2.49-3.62-.54-11.27-1.72-11.15-1.72-22.31-3.44-33.46-5.15-.42-.07-.87-.02-1.25-.45.45-.4,1.01-.38,1.53-.45,12.78-1.98,25.58-3.93,38.36-5.88,2.02-.31,4.02-.61,6.05-.94,1.2-.19,1.32-.45.71-1.41-4.82-7.98-9.65-15.98-14.47-23.96-.14-.24-.21-.49-.35-.75.56-.24.85.19,1.2.4,7.67,4.82,15.46,9.44,23.23,14.1,1.48.89,1.55.82,1.81-1.04q.85-6.21,2.52-18.64c1.34-9.91,2.68-19.81,4.02-29.72.19-1.29.19-2.64.8-3.88.28,2.07.56,4.17.85,6.24,1.25,9.18,2.47,18.33,3.74,27.51.8,5.69,1.34,11.44,2.38,17.13.12.61.07,1.25.14,1.88.14,1.2.42,1.32,1.46.71,6.07-3.51,12.05-7.18,18.03-10.85,1.86-1.15,3.72-2.33,5.6-3.46.31-.19.59-.52,1.04-.42.19.38-.09.61-.24.85-4.8,7.91-9.6,15.81-14.4,23.72-.73,1.2-.64,1.41.75,1.62,13.41,2.07,26.8,4.12,40.22,6.19,1.67.26,3.34.47,5.01.73.38.05.78.02,1.08.33-.21.4-.54.35-.85.4-10.17,1.25-20.21,3.2-30.33,4.64-4.82.68-9.62,1.44-14.43,2.16-.31.05-.61.12-.92.16-1.01.12-1.13.56-.61,1.41,2.07,3.39,4.09,6.78,6.14,10.17,2.73,4.49,5.48,8.97,8.21,13.46.19.26.49.54.35,1.2Zm-33.23,48.55c.05-.35.14-.68.16-1.04.73-8.28,1.46-16.57,2.14-24.83,1.13-13.48,2.21-26.94,3.32-40.43.09-1.15.31-1.27,1.25-.66,6.19,4,12.59,7.67,18.85,11.53.33.21.75.66,1.13.28.31-.31-.09-.73-.28-1.06-3.69-6.09-7.39-12.19-11.13-18.28-1.08-1.76-1.13-1.72.94-2.02,11.32-1.74,22.64-3.48,33.93-5.22.4-.07.82-.02,1.18-.42-.52-.35-1.04-.35-1.53-.42-11.34-1.76-22.71-3.51-34.05-5.27-1.51-.24-1.51-.28-.68-1.65,3.72-6.09,7.41-12.19,11.11-18.28.26-.42.56-.85.47-1.39-.52-.07-.89.14-1.27.35-4.87,2.94-9.72,5.88-14.59,8.82-1.34.82-2.66,1.65-4,2.47-.47.28-1.11.54-1.06-.33.09-2.02-.73-3.84-1.01-5.77-.52-3.69-1.01-7.39-1.51-11.06-.99-7.39-1.98-14.75-2.97-22.14-.09-.64-.14-1.29-.56-1.84-.47.28-.38.73-.45,1.08-.49,3.6-1.01,7.22-1.48,10.82-1.29,9.55-2.57,19.11-3.86,28.66-.14,1.15-.31,1.22-1.29.66-.26-.16-.52-.35-.8-.52-6.02-3.67-12.03-7.37-18.05-11.04-.33-.21-.8-.61-1.15-.24-.26.31.16.71.33,1.06.02.07.07.14.12.21,3.79,6.21,7.58,12.45,11.39,18.68.64,1.06.56,1.2-.66,1.39-11.32,1.74-22.64,3.48-33.93,5.22-.59.09-1.22.09-1.76.52.52.38,1.04.35,1.53.45,11.34,1.76,22.71,3.51,34.05,5.25,1.44.21,1.44.33.66,1.6-3.81,6.21-7.6,12.43-11.39,18.66-.19.33-.59.73-.31,1.06.38.4.78-.07,1.13-.28,6.31-3.81,12.59-7.65,18.9-11.48,1.01-.61,1.15-.54,1.25.61.66,8.05,1.32,16.1,2,24.14,1.04,12.35,2.05,24.69,3.08,37.04.14,1.69.21,3.41.87,5.08Z"/>
  <g>
    <path d="m188.61,175.22h24.18c15.49,0,27.98,5.54,27.98,22.64s-12.63,23.86-27.55,23.86h-8.7v23.88h-15.91v-70.39Zm23.68,33.87c8.75,0,12.89-3.9,12.89-11.23s-4.71-10.01-13.32-10.01h-7.33v21.24h7.76Z"/>
    <path d="m249.65,210.11c0-23,12.99-36.19,31.97-36.19s31.97,13.28,31.97,36.19-12.99,36.8-31.97,36.8-31.97-13.8-31.97-36.8Zm47.63,0c0-14.11-6.06-22.45-15.66-22.45s-15.66,8.33-15.66,22.45,6.06,23.06,15.66,23.06,15.66-8.94,15.66-23.06Z"/>
    <path d="m326.85,175.22h15.91v57.04h27.79v13.35h-43.7v-70.39Z"/>
    <path d="m395.24,175.22h19.04l22.11,70.39h-16.84l-9.21-35.65c-1.96-7.04-3.84-15.36-5.72-22.71h-.43c-1.7,7.43-3.58,15.67-5.54,22.71l-9.25,35.65h-16.27l22.11-70.39Zm-7.53,41.26h33.87v12.37h-33.87v-12.37Z"/>
    <path d="m443.16,175.22h25.35c14.93,0,27.17,5.18,27.17,21.92s-12.24,23.14-27.17,23.14h-9.44v25.33h-15.91v-70.39Zm24.06,32.42c8.37,0,12.87-3.58,12.87-10.5s-4.5-9.29-12.87-9.29h-8.14v19.79h8.14Zm-1.62,8.44l11.01-10.18,22.46,39.71h-17.81l-15.66-29.53Z"/>
    <path d="m509.37,175.22h15.91v70.39h-15.91v-70.39Z"/>
    <path d="m537.33,236.73l9.14-10.92c5.01,4.36,11.5,7.36,17.29,7.36,6.64,0,9.89-2.62,9.89-6.79,0-4.43-4-5.85-10.15-8.38l-9.15-3.9c-7.29-2.97-14.21-8.96-14.21-19.19,0-11.66,10.42-20.98,25.07-20.98,8.11,0,16.58,3.2,22.64,9.23l-8.03,10.03c-4.64-3.56-9.05-5.51-14.61-5.51s-8.98,2.29-8.98,6.31c0,4.32,4.6,5.89,10.75,8.33l8.97,3.63c8.6,3.47,13.96,9.2,13.96,19.15,0,11.69-9.75,21.82-26.52,21.82-9.16,0-18.89-3.47-26.07-10.18Z"/>
    <path d="m322.89,254.75c.18.11.27.25.27.43s-.06.33-.19.46c-.13.13-.29.22-.49.3-.2.07-.39.05-.57-.05-.58-.36-1.53-.63-2.86-.81-1.33-.18-2.97-.29-4.91-.32-2.66-.04-5.72.02-9.15.16-3.44.15-7.09.35-10.96.62-3.87.27-7.9.59-12.1.95-4.19.36-8.38.74-12.56,1.13-.68,2.23-1.56,4.86-2.62,7.88-1.06,3.02-2.21,6.29-3.46,9.8-1.24,3.51-2.55,7.17-3.92,10.99-1.37,3.82-2.71,7.63-4.02,11.45-1.31,3.82-2.57,7.55-3.75,11.21s-2.22,7.08-3.1,10.29c-.88,3.2-1.58,6.08-2.11,8.64-.52,2.56-.77,4.64-.73,6.26,0,.11,0,.26.03.46.02.2.05.37.11.51.05.14.13.25.24.32.11.07.25.02.43-.16,1.4-1.22,2.54-2.45,3.4-3.67.86-1.22,1.8-2.59,2.81-4.1.11-.22.26-.34.46-.38.2-.04.38-.02.54.05s.27.18.32.32c.05.14.03.32-.08.54-.4.61-.85,1.28-1.35,2-.5.72-1.04,1.45-1.59,2.19-.56.74-1.14,1.45-1.76,2.13-.61.68-1.21,1.28-1.78,1.78-.83.76-1.54,1.16-2.13,1.22-.59.05-1.09-.12-1.49-.51-.4-.4-.68-.96-.86-1.7-.18-.74-.27-1.52-.27-2.35.07-2.45.54-5.5,1.4-9.15.86-3.65,1.97-7.66,3.32-12.01,1.35-4.36,2.87-8.94,4.56-13.74,1.69-4.81,3.38-9.58,5.08-14.31,1.69-4.73,3.33-9.3,4.91-13.69,1.58-4.39,2.93-8.37,4.05-11.93-3.71.36-7.32.71-10.83,1.05-3.51.34-6.85.67-10.02,1-2.99.32-5.74.61-8.26.86-2.52.25-4.77.47-6.75.65-7.67.76-12.65,1.08-14.96.97-2.23.11-3.35-.02-3.35-.38.04-.47,2.73-1.16,8.07-2.08,5.35-.92,13.26-2.21,23.73-3.86,3.49-.54,7.26-1.14,11.31-1.81,4.05-.67,8.42-1.36,13.1-2.08.18-.04.42-.06.73-.08.31-.02.6,0,.89.03.29.04.52.11.7.22.18.11.25.27.22.49-.07.36-.17.8-.3,1.33-.13.52-.28,1.14-.46,1.86,3.67-.36,7.33-.69,10.99-1,3.65-.31,7.21-.58,10.67-.83,3.46-.24,6.75-.44,9.88-.59,3.13-.15,5.99-.24,8.59-.28.76,0,1.74,0,2.94-.03,1.21-.02,2.44.01,3.7.08,1.26.07,2.46.21,3.59.42,1.13.21,2.02.5,2.67.87Zm-56.38,1.59c.14-.47.27-.89.38-1.27.11-.38.2-.73.27-1.05-4.1.65-7.95,1.25-11.53,1.81-3.58.56-6.96,1.09-10.12,1.59-5.36.83-10.01,1.52-13.93,2.08-3.92.56-7.16,1.02-9.72,1.38.94-.11,1.95-.22,3.05-.32,1.1-.11,2.28-.23,3.54-.38,6.37-.58,12.72-1.21,19.03-1.89s12.66-1.33,19.04-1.94Z"/>
    <path d="m269.64,306.05c-.54.4-1.1.71-1.67.94-.58.23-1.1.31-1.57.22-.47-.09-.85-.39-1.16-.89-.31-.5-.44-1.33-.41-2.48.04-1.08.23-2.19.57-3.32.34-1.13.82-2.23,1.43-3.29.61-1.06,1.33-2.04,2.16-2.94.83-.9,1.73-1.66,2.7-2.27.65-.4,1.3-.71,1.97-.95.67-.23,1.32-.35,1.97-.35s1.26.15,1.84.46c.58.31,1.08.8,1.51,1.49.5-.72,1.04-1.34,1.62-1.86.58-.52,1.08-.84,1.51-.97.43-.13.76,0,1,.41.23.4.26,1.15.08,2.27-.07.47-.24,1.11-.51,1.92-.27.81-.56,1.68-.86,2.62-.31.94-.6,1.89-.89,2.86-.29.97-.47,1.85-.54,2.65-.11,1.04.04,1.75.43,2.11.4.36,1.22.34,2.48-.05,1.12-.36,2.3-.97,3.56-1.84,1.26-.86,2.47-1.78,3.65-2.75,1.17-.97,2.22-1.89,3.16-2.75.94-.86,1.64-1.48,2.11-1.84.18-.14.37-.21.57-.19.2.02.36.09.49.22.13.13.19.28.19.46s-.09.34-.27.49c-.61.47-1.47,1.19-2.56,2.16-1.1.97-2.31,1.99-3.65,3.05-1.33,1.06-2.72,2.07-4.16,3.02-1.44.95-2.81,1.65-4.1,2.08s-2.25.4-2.86-.11c-.61-.5-.99-1.23-1.13-2.19-.14-.95-.13-2.04.03-3.27s.36-2.36.59-3.4c.23-1.04.45-1.9.65-2.57.2-.67.26-.93.19-.78-.61.97-1.29,2-2.02,3.08-.74,1.08-1.54,2.14-2.4,3.19-.86,1.04-1.77,2.03-2.73,2.97-.95.94-1.94,1.75-2.94,2.43Zm8.37-11.99c-.47-1.12-1.1-1.67-1.89-1.67s-1.6.29-2.43.86c-.68.47-1.35,1.1-2,1.89s-1.24,1.65-1.78,2.56-1,1.85-1.38,2.78c-.38.94-.66,1.78-.84,2.54-.18.86-.11,1.46.22,1.78.32.32.92.16,1.78-.49.86-.65,1.69-1.39,2.48-2.21.79-.83,1.53-1.69,2.21-2.59.68-.9,1.32-1.82,1.92-2.75.59-.94,1.16-1.84,1.7-2.7Z"/>
    <path d="m311.06,273.76c-.5,1.22-1.1,2.56-1.78,4.02-.68,1.46-1.44,3-2.27,4.62.86-.11,1.84-.21,2.92-.3s2.16-.16,3.24-.22c1.08-.05,2.13-.06,3.16-.03,1.03.04,1.92.14,2.67.32.4.11.79.26,1.19.46.4.2.45.55.16,1.05-.14.22-.44.42-.89.62-.45.2-.95.38-1.51.54-.56.16-1.1.32-1.62.49-.52.16-.94.3-1.27.41-.22.11-.4.12-.57.03s-.27-.21-.32-.35c-.05-.14-.05-.3.03-.46.07-.16.22-.3.43-.4.58-.22,1.17-.41,1.78-.59.61-.18,1.22-.36,1.84-.54-.76-.14-1.65-.22-2.67-.24-1.03-.02-2.08,0-3.16.05s-2.16.13-3.24.24c-1.08.11-2.05.2-2.92.27-.07.18-.16.34-.27.49-.11.14-.2.31-.27.49-1.04,1.87-2.16,3.74-3.35,5.62-1.19,1.87-2.39,3.67-3.62,5.4-.29.72-.59,1.56-.89,2.51-.31.95-.54,1.91-.7,2.86-.16.95-.23,1.84-.19,2.65.04.81.26,1.46.67,1.94.41.49,1.07.74,1.97.76.9.02,2.12-.31,3.67-1,1.19-.5,2.42-1.15,3.7-1.94,1.28-.79,2.54-1.65,3.78-2.57,1.24-.92,2.45-1.86,3.62-2.83,1.17-.97,2.24-1.87,3.21-2.7.18-.14.37-.21.57-.19.2.02.35.08.46.19.11.11.17.25.19.43.02.18-.06.34-.24.49-1.01.86-2.12,1.79-3.32,2.78-1.21.99-2.45,1.95-3.73,2.89-1.28.94-2.57,1.81-3.89,2.62-1.31.81-2.58,1.49-3.81,2.03-2.2.94-3.96,1.41-5.29,1.43-1.33.02-2.35-.29-3.05-.92-.7-.63-1.12-1.52-1.24-2.67-.13-1.15-.07-2.45.16-3.89.23-1.44.61-2.95,1.13-4.54s1.08-3.11,1.67-4.59c.59-1.48,1.18-2.83,1.75-4.08.58-1.24,1.04-2.24,1.4-3-1.48.18-2.99.37-4.54.57-1.55.2-3.17.42-4.86.68-.25.04-.44,0-.57-.14-.13-.12-.19-.27-.19-.43s.05-.31.16-.46c.11-.14.29-.23.54-.27,1.84-.25,3.59-.49,5.26-.7,1.67-.22,3.29-.41,4.83-.59.97-1.94,1.99-3.91,3.05-5.89,1.06-1.98,2.26-3.85,3.59-5.62.79-1.04,1.52-1.8,2.19-2.27.67-.47,1.19-.63,1.57-.49.38.14.56.62.54,1.43-.02.81-.32,1.99-.89,3.54Zm-9.72,15.66c.54-.83,1.06-1.68,1.57-2.56.5-.88,1.01-1.74,1.51-2.57.04-.07.06-.13.08-.19.02-.05.04-.12.08-.19-.11.04-.22.05-.32.05s-.22.02-.32.05c-.47.94-.92,1.84-1.35,2.73-.43.88-.85,1.77-1.24,2.67Zm4-6.86c.86-1.58,1.68-3.19,2.46-4.81.77-1.62,1.47-3.24,2.08-4.86-.94,1.58-1.84,3.2-2.7,4.83-.86,1.64-1.71,3.27-2.54,4.89.11,0,.22,0,.35-.03.13-.02.24-.03.35-.03Z"/>
    <path d="m332.88,273.76c-.5,1.22-1.1,2.56-1.78,4.02-.68,1.46-1.44,3-2.27,4.62.86-.11,1.84-.21,2.92-.3s2.16-.16,3.24-.22c1.08-.05,2.13-.06,3.16-.03,1.03.04,1.92.14,2.67.32.4.11.79.26,1.19.46.4.2.45.55.16,1.05-.14.22-.44.42-.89.62-.45.2-.95.38-1.51.54-.56.16-1.1.32-1.62.49-.52.16-.94.3-1.27.41-.22.11-.4.12-.57.03s-.27-.21-.32-.35c-.05-.14-.05-.3.03-.46.07-.16.22-.3.43-.4.58-.22,1.17-.41,1.78-.59.61-.18,1.22-.36,1.84-.54-.76-.14-1.65-.22-2.67-.24-1.03-.02-2.08,0-3.16.05s-2.16.13-3.24.24c-1.08.11-2.05.2-2.92.27-.07.18-.16.34-.27.49-.11.14-.2.31-.27.49-1.04,1.87-2.16,3.74-3.35,5.62-1.19,1.87-2.39,3.67-3.62,5.4-.29.72-.59,1.56-.89,2.51-.31.95-.54,1.91-.7,2.86-.16.95-.23,1.84-.19,2.65.04.81.26,1.46.67,1.94.41.49,1.07.74,1.97.76.9.02,2.12-.31,3.67-1,1.19-.5,2.42-1.15,3.7-1.94,1.28-.79,2.54-1.65,3.78-2.57,1.24-.92,2.45-1.86,3.62-2.83,1.17-.97,2.24-1.87,3.21-2.7.18-.14.37-.21.57-.19.2.02.35.08.46.19.11.11.17.25.19.43.02.18-.06.34-.24.49-1.01.86-2.12,1.79-3.32,2.78-1.21.99-2.45,1.95-3.73,2.89-1.28.94-2.57,1.81-3.89,2.62-1.31.81-2.58,1.49-3.81,2.03-2.2.94-3.96,1.41-5.29,1.43-1.33.02-2.35-.29-3.05-.92-.7-.63-1.12-1.52-1.24-2.67-.13-1.15-.07-2.45.16-3.89.23-1.44.61-2.95,1.13-4.54s1.08-3.11,1.67-4.59c.59-1.48,1.18-2.83,1.75-4.08.58-1.24,1.04-2.24,1.4-3-1.48.18-2.99.37-4.54.57-1.55.2-3.17.42-4.86.68-.25.04-.44,0-.57-.14-.13-.12-.19-.27-.19-.43s.05-.31.16-.46c.11-.14.29-.23.54-.27,1.84-.25,3.59-.49,5.26-.7,1.67-.22,3.29-.41,4.83-.59.97-1.94,1.99-3.91,3.05-5.89,1.06-1.98,2.26-3.85,3.59-5.62.79-1.04,1.52-1.8,2.19-2.27.67-.47,1.19-.63,1.57-.49.38.14.56.62.54,1.43-.02.81-.32,1.99-.89,3.54Zm-9.72,15.66c.54-.83,1.06-1.68,1.57-2.56.5-.88,1.01-1.74,1.51-2.57.04-.07.06-.13.08-.19.02-.05.04-.12.08-.19-.11.04-.22.05-.32.05s-.22.02-.32.05c-.47.94-.92,1.84-1.35,2.73-.43.88-.85,1.77-1.24,2.67Zm4-6.86c.86-1.58,1.68-3.19,2.46-4.81.77-1.62,1.47-3.24,2.08-4.86-.94,1.58-1.84,3.2-2.7,4.83-.86,1.64-1.71,3.27-2.54,4.89.11,0,.22,0,.35-.03.13-.02.24-.03.35-.03Z"/>
    <path d="m348.64,302.06c.58.11,1.35.02,2.32-.27,1.51-.43,3.19-1.21,5.05-2.35,1.85-1.13,3.59-2.46,5.21-3.97.18-.14.36-.22.54-.22s.33.05.46.14c.13.09.2.22.22.4.02.18-.06.34-.24.49-1.69,1.62-3.53,3.02-5.51,4.21-1.98,1.19-3.78,2.03-5.4,2.54-.58.18-1.17.31-1.78.38-.61.07-1.17.02-1.67-.16-.79,1.08-1.69,2.01-2.7,2.78-1.01.77-2,1.3-2.97,1.59-.97.29-1.87.3-2.7.03-.83-.27-1.44-.91-1.84-1.92-.36-.86-.52-1.84-.49-2.92.04-1.08.22-2.18.54-3.29.32-1.12.75-2.21,1.27-3.27.52-1.06,1.09-1.99,1.7-2.78,1.12-1.44,2.25-2.47,3.4-3.08,1.15-.61,2.21-.89,3.19-.84.97.05,1.8.4,2.48,1.05.68.65,1.13,1.53,1.35,2.65.22,1.12.14,2.42-.22,3.92-.36,1.49-1.1,3.12-2.21,4.89Zm1.19-8.59c-.32-.94-.72-1.56-1.19-1.86-.47-.31-.98-.39-1.54-.24-.56.14-1.13.47-1.73.97-.59.5-1.16,1.1-1.7,1.78-.5.61-.95,1.3-1.35,2.05-.4.76-.73,1.53-1,2.32-.27.79-.48,1.58-.62,2.38-.14.79-.22,1.53-.22,2.21,0,1.44.22,2.36.67,2.75.45.4.99.48,1.62.24.63-.23,1.3-.69,2.02-1.38.72-.68,1.35-1.4,1.89-2.16-.4-.47-.56-1.16-.49-2.08.07-.92.29-1.85.65-2.81.36-.95.81-1.84,1.35-2.65.54-.81,1.08-1.32,1.62-1.54Zm.22,1.35c-.29.25-.59.66-.89,1.21-.31.56-.58,1.15-.81,1.78-.23.63-.42,1.24-.57,1.84-.14.59-.18,1.05-.11,1.38.25-.43.52-.91.81-1.43.29-.52.55-1.07.78-1.65.23-.58.42-1.13.57-1.67.14-.54.22-1.03.22-1.46Z"/>
    <path d="m370.46,302.06c.58.11,1.35.02,2.32-.27,1.51-.43,3.19-1.21,5.05-2.35,1.85-1.13,3.59-2.46,5.21-3.97.18-.14.36-.22.54-.22s.33.05.46.14c.13.09.2.22.22.4.02.18-.06.34-.24.49-1.69,1.62-3.53,3.02-5.51,4.21-1.98,1.19-3.78,2.03-5.4,2.54-.58.18-1.17.31-1.78.38-.61.07-1.17.02-1.67-.16-.79,1.08-1.69,2.01-2.7,2.78-1.01.77-2,1.3-2.97,1.59-.97.29-1.87.3-2.7.03-.83-.27-1.44-.91-1.84-1.92-.36-.86-.52-1.84-.49-2.92.04-1.08.22-2.18.54-3.29.32-1.12.75-2.21,1.27-3.27.52-1.06,1.09-1.99,1.7-2.78,1.12-1.44,2.25-2.47,3.4-3.08,1.15-.61,2.21-.89,3.19-.84.97.05,1.8.4,2.48,1.05.68.65,1.13,1.53,1.35,2.65.22,1.12.14,2.42-.22,3.92-.36,1.49-1.1,3.12-2.21,4.89Zm1.19-8.59c-.32-.94-.72-1.56-1.19-1.86-.47-.31-.98-.39-1.54-.24-.56.14-1.13.47-1.73.97-.59.5-1.16,1.1-1.7,1.78-.5.61-.95,1.3-1.35,2.05-.4.76-.73,1.53-1,2.32-.27.79-.48,1.58-.62,2.38-.14.79-.22,1.53-.22,2.21,0,1.44.22,2.36.67,2.75.45.4.99.48,1.62.24.63-.23,1.3-.69,2.02-1.38.72-.68,1.35-1.4,1.89-2.16-.4-.47-.56-1.16-.49-2.08.07-.92.29-1.85.65-2.81.36-.95.81-1.84,1.35-2.65.54-.81,1.08-1.32,1.62-1.54Zm.22,1.35c-.29.25-.59.66-.89,1.21-.31.56-.58,1.15-.81,1.78-.23.63-.42,1.24-.57,1.84-.14.59-.18,1.05-.11,1.38.25-.43.52-.91.81-1.43.29-.52.55-1.07.78-1.65.23-.58.42-1.13.57-1.67.14-.54.22-1.03.22-1.46Z"/>
    <path d="m449.84,276.35c-.18.14-.37.22-.57.22s-.35-.07-.46-.22c-.29-.29-.23-.59.16-.92,1.76-1.37,3.22-2.89,4.37-4.56s1.98-3.33,2.48-4.97c.5-1.64.67-3.19.51-4.67-.16-1.48-.67-2.73-1.51-3.75-.85-1.03-2.03-1.75-3.56-2.19-1.53-.43-3.43-.41-5.7.05-3.13.65-6.21,1.94-9.23,3.89s-5.91,4.29-8.67,7.05-5.36,5.78-7.8,9.07c-2.45,3.29-4.69,6.6-6.72,9.91s-3.81,6.53-5.32,9.64c-1.51,3.11-2.72,5.84-3.62,8.18-1.22,3.21-2.21,6.31-2.94,9.32-.74,3-1.18,5.84-1.32,8.5-.18,3.31.06,6.04.73,8.18.67,2.14,1.65,3.81,2.94,5,1.3,1.19,2.86,1.95,4.7,2.29,1.84.34,3.83.35,5.99.03s4.43-.94,6.8-1.84c2.38-.9,4.75-2,7.13-3.29s4.71-2.73,7.02-4.29c2.3-1.57,4.45-3.2,6.43-4.89,3.13-2.66,6.11-5.41,8.94-8.23,2.83-2.83,5.35-5.48,7.59-7.96,2.23-2.48,4.1-4.67,5.62-6.56,1.51-1.89,2.56-3.21,3.13-3.97.14-.18.31-.29.51-.32.2-.04.37-.02.51.05.14.07.24.19.3.35.05.16,0,.35-.14.57-.58.76-1.63,2.09-3.16,4-1.53,1.91-3.42,4.11-5.67,6.62-2.25,2.5-4.8,5.18-7.64,8.05-2.84,2.86-5.85,5.62-9.02,8.29-1.66,1.4-3.63,2.92-5.91,4.56-2.29,1.64-4.72,3.19-7.29,4.67-2.57,1.48-5.23,2.77-7.96,3.89-2.74,1.12-5.41,1.85-8.02,2.21-2.61.36-5.07.24-7.37-.35s-4.32-1.88-6.05-3.86c-1.33-1.51-2.26-3.38-2.78-5.62-.52-2.23-.71-4.72-.57-7.45.14-2.7.58-5.58,1.32-8.64s1.74-6.23,3-9.5c.86-2.27,2.01-4.87,3.43-7.8,1.42-2.93,3.09-5.99,5-9.15,1.91-3.17,4.01-6.36,6.32-9.58,2.3-3.22,4.77-6.23,7.4-9.02,2.63-2.79,5.39-5.27,8.29-7.43,2.9-2.16,5.86-3.8,8.88-4.91,3.13-1.15,5.86-1.68,8.18-1.59,2.32.09,4.21.6,5.67,1.54,1.46.94,2.47,2.22,3.05,3.86.58,1.64.69,3.44.35,5.4-.34,1.96-1.15,4.01-2.43,6.13-1.28,2.12-3.05,4.14-5.32,6.05Z"/>
    <path d="m470.03,295.85c-.4,1.33-.7,2.56-.92,3.7-.22,1.13-.32,2.15-.32,3.05-.04,1.66.31,2.75,1.03,3.27.72.52,2,.39,3.83-.41,1.19-.5,2.41-1.15,3.67-1.94,1.26-.79,2.52-1.65,3.78-2.57,1.26-.92,2.46-1.86,3.62-2.83s2.21-1.87,3.19-2.7c.18-.14.37-.21.57-.19.2.02.36.08.49.19.13.11.19.25.19.43s-.09.34-.27.49c-1.01.86-2.11,1.79-3.29,2.78-1.19.99-2.43,1.95-3.73,2.89-1.3.94-2.6,1.81-3.92,2.62-1.31.81-2.58,1.49-3.81,2.03-1.73.76-3.15,1.11-4.27,1.05-1.12-.05-1.99-.39-2.62-1-.63-.61-1.04-1.46-1.24-2.54-.2-1.08-.24-2.29-.13-3.62.14-1.62.59-3.69,1.35-6.21.76-2.52,1.71-5.25,2.86-8.18,1.15-2.93,2.45-5.92,3.89-8.96s2.91-5.9,4.4-8.59c1.49-2.68,2.97-5.03,4.43-7.05,1.46-2.02,2.78-3.46,3.97-4.32.61-.43,1.12-.62,1.54-.57.41.05.73.29.94.7.22.41.33.98.35,1.7.02.72-.06,1.51-.24,2.38-.32,1.48-.86,3.19-1.62,5.13s-1.66,4.01-2.7,6.18-2.2,4.39-3.46,6.64c-1.26,2.25-2.56,4.4-3.89,6.45-1.33,2.05-2.66,3.95-3.97,5.7-1.31,1.75-2.55,3.18-3.7,4.29Zm.92-2.97c1.51-1.8,3.1-3.96,4.78-6.48,1.67-2.52,3.27-5.15,4.78-7.88,1.51-2.74,2.87-5.43,4.08-8.07,1.21-2.65,2.11-5,2.73-7.05.11-.43.23-.9.38-1.4.14-.5.24-.95.3-1.32.05-.38.04-.63-.05-.76-.09-.13-.3-.04-.62.24-.79.76-1.7,1.94-2.73,3.56-1.03,1.62-2.09,3.47-3.19,5.56-1.1,2.09-2.2,4.31-3.29,6.67-1.1,2.36-2.12,4.63-3.05,6.8-.94,2.18-1.77,4.16-2.51,5.94-.74,1.78-1.27,3.18-1.59,4.18Z"/>
    <path d="m498.92,301.03c-.32-1.3-.31-3.1.05-5.4-.83,1.37-1.71,2.75-2.65,4.13-.94,1.39-1.94,2.71-3.02,3.97-.54.61-1.14,1.22-1.81,1.84s-1.31,1.09-1.94,1.43c-.63.34-1.21.45-1.73.32-.52-.13-.89-.62-1.11-1.49-.29-1.04-.39-2.21-.3-3.51.09-1.3.3-2.61.62-3.94.32-1.33.7-2.64,1.13-3.91.43-1.28.86-2.42,1.3-3.43.14-.4.44-.72.89-.97.45-.25.9-.4,1.35-.43s.81.04,1.08.24c.27.2.3.55.08,1.05-.4.86-.78,1.85-1.16,2.97-.38,1.12-.72,2.28-1.03,3.48-.31,1.21-.58,2.38-.81,3.54-.23,1.15-.39,2.18-.46,3.08-.07.72.08,1.07.46,1.05s1.14-.71,2.29-2.08c.76-.86,1.51-1.81,2.27-2.83.76-1.03,1.48-2.09,2.19-3.19.7-1.1,1.36-2.2,1.97-3.32.61-1.12,1.15-2.16,1.62-3.13.25-.5.58-.81.97-.92.4-.11.77-.1,1.13.03.36.13.65.32.86.59.22.27.29.53.22.78-.04.29-.17.82-.41,1.59-.23.77-.46,1.64-.67,2.59-.22.96-.4,1.92-.54,2.89-.14.97-.16,1.8-.05,2.48.14.83.49,1.31,1.03,1.46.54.14,1.18.06,1.92-.24.74-.3,1.55-.75,2.43-1.32.88-.58,1.73-1.2,2.54-1.86.81-.67,1.56-1.29,2.24-1.86.68-.58,1.19-.99,1.51-1.24.22-.14.41-.21.59-.19.18.02.32.09.43.22.11.13.16.28.16.46s-.11.34-.32.49c-.54.43-1.25,1.01-2.13,1.73-.88.72-1.84,1.46-2.86,2.21-1.03.76-2.08,1.45-3.16,2.08-1.08.63-2.1,1.04-3.05,1.24-.96.2-1.8.11-2.54-.27-.74-.38-1.27-1.18-1.59-2.4Z"/>
    <path d="m515.45,300.06c.72-1.15,1.5-2.31,2.35-3.48.84-1.17,1.75-2.24,2.73-3.21.47-.5,1.07-1.06,1.81-1.67s1.5-1.11,2.3-1.49c.79-.38,1.56-.56,2.29-.54.74.02,1.34.41,1.81,1.16.32.5.5,1.09.54,1.75.04.67,0,1.36-.13,2.08-.13.72-.31,1.43-.54,2.13-.23.7-.48,1.32-.73,1.86,1.26-.58,2.63-1.13,4.1-1.67,1.48-.54,3.04-1.06,4.7-1.57.25-.07.45-.06.59.03.14.09.23.21.27.35.04.14,0,.31-.08.49-.09.18-.24.31-.46.38-3.53,1.01-6.91,2.29-10.15,3.83-.43.72-.93,1.44-1.49,2.16-.56.72-1.19,1.4-1.89,2.02-.7.63-1.44,1.19-2.21,1.67-.78.49-1.59.86-2.46,1.11-1.26.36-2.01.3-2.24-.19-.23-.49.06-1.16.89-2.03.83-.83,1.75-1.59,2.78-2.29s2.04-1.36,3.05-1.97c.9-1.66,1.57-3.29,2-4.91.68-2.48.77-3.95.27-4.4-.5-.45-1.82.37-3.94,2.46-.65.65-1.3,1.39-1.94,2.21-.65.83-1.27,1.69-1.86,2.59-.59.9-1.15,1.79-1.67,2.67s-.96,1.72-1.32,2.51c0,.07-.05.35-.14.84s-.18,1.01-.27,1.57c-.09.56-.18,1.08-.27,1.57s-.15.75-.19.78c-.18.29-.44.45-.78.49s-.69,0-1.05-.14c-.36-.12-.67-.29-.95-.49-.27-.2-.41-.39-.41-.57.14-1.22.42-2.87.81-4.94.4-2.07.9-4.32,1.51-6.75.61-2.43,1.3-4.94,2.08-7.53.77-2.59,1.61-5.06,2.51-7.4.58-1.48,1.31-3.25,2.21-5.32.9-2.07,1.92-4.17,3.05-6.32,1.13-2.14,2.33-4.17,3.59-6.08,1.26-1.91,2.54-3.42,3.83-4.54,1.01-.9,1.84-1.42,2.51-1.57s1.16,0,1.49.46.48,1.14.46,2.08c-.02.94-.21,2.03-.57,3.29-.32,1.12-.76,2.38-1.32,3.81-.56,1.42-1.2,2.94-1.92,4.56-.72,1.62-1.5,3.29-2.35,5.02-.85,1.73-1.74,3.44-2.67,5.13-1.55,2.81-3.15,5.43-4.81,7.86-1.66,2.43-3.24,4.38-4.75,5.86-.18.76-.35,1.49-.51,2.21-.16.72-.32,1.4-.46,2.05Zm1.67-6.97c1.26-1.48,2.53-3.2,3.81-5.18,1.28-1.98,2.53-4.08,3.75-6.32.9-1.66,1.77-3.33,2.62-5.02.84-1.69,1.62-3.33,2.32-4.91.7-1.58,1.32-3.09,1.86-4.51s.97-2.67,1.3-3.75c.14-.5.31-1.08.49-1.73.18-.65.26-1.13.24-1.46-.02-.32-.18-.39-.49-.19-.31.2-.89.89-1.75,2.08-2.2,3.06-4.17,6.3-5.91,9.72-1.75,3.42-3.27,6.86-4.56,10.31-.76,1.94-1.43,3.83-2.03,5.64-.59,1.82-1.14,3.59-1.65,5.32Zm1.13,13.18c.11,0,.2-.02.27-.05,1.12-.61,2.14-1.49,3.08-2.65v-.05c-.54.4-1.13.84-1.78,1.32-.65.49-1.17.96-1.57,1.43Z"/>
  </g>
</svg>