<?xml version="1.0" encoding="utf-8"?>
<!-- Generator: Adobe Illustrator 27.7.0, SVG Export Plug-In . SVG Version: 6.00 Build 0)  -->
<svg version="1.1" id="Capa_1" xmlns="http://www.w3.org/2000/svg" xmlns:xlink="http://www.w3.org/1999/xlink" x="0px" y="0px"
	 viewBox="0 0 595.3 841.9" style="enable-background:new 0 0 595.3 841.9;" xml:space="preserve">
<g>
	<g>
		<path d="M330.7,315.7c-2.2-1.3-4.3-2.6-6.4-3.9c-6.1-3.7-12.2-7.4-18.3-11.1c-0.9-0.5-1.1-0.1-1.2,0.6c-0.2,2.8-0.4,5.6-0.7,8.4
			c-1,11.9-2,23.8-3,35.7c-1.3,15.7-2.2,26.7-2.8,33.7c-0.3,3.6-0.6,7.2-1.2,10.8c-0.1-1.5-0.3-2.9-0.4-4.4
			c-1.3-16.1-2.7-32.2-4-48.3c-1-11.8-1.9-23.7-2.9-35.5c-0.1-1.5-0.3-1.6-1.6-0.8c-7.8,4.7-15.6,9.5-23.4,14.2
			c-0.3,0.1-0.5,0.4-0.9,0.3c0.3-1,0.9-1.7,1.4-2.5c4.4-7.4,8.9-14.8,13.4-22.1c0.6-1.1,0.1-1.2-0.7-1.3c3.2,0.5-3.6-0.5-11.3-1.7
			c-11.2-1.7-22.3-3.4-33.5-5.2c-0.4-0.1-0.9,0-1.2-0.4c0.4-0.4,1-0.4,1.5-0.4c12.8-2,25.6-3.9,38.4-5.9c2-0.3,4-0.6,6-0.9
			c1.2-0.2,1.3-0.4,0.7-1.4c-4.8-8-9.6-16-14.5-24c-0.1-0.2-0.2-0.5-0.4-0.8c0.6-0.2,0.8,0.2,1.2,0.4c7.7,4.8,15.5,9.4,23.2,14.1
			c1.5,0.9,1.6,0.8,1.8-1c0.8-6.2,0.8-6.2,2.5-18.6c1.3-9.9,2.7-19.8,4-29.7c0.2-1.3,0.2-2.6,0.8-3.9c0.3,2.1,0.6,4.2,0.8,6.2
			c1.2,9.2,2.5,18.3,3.7,27.5c0.8,5.7,1.3,11.4,2.4,17.1c0.1,0.6,0.1,1.2,0.1,1.9c0.1,1.2,0.4,1.3,1.5,0.7c6.1-3.5,12-7.2,18-10.8
			c1.9-1.2,3.7-2.3,5.6-3.5c0.3-0.2,0.6-0.5,1-0.4c0.2,0.4-0.1,0.6-0.2,0.8c-4.8,7.9-9.6,15.8-14.4,23.7c-0.7,1.2-0.6,1.4,0.8,1.6
			c13.4,2.1,26.8,4.1,40.2,6.2c1.7,0.3,3.3,0.5,5,0.7c0.4,0,0.8,0,1.1,0.3c-0.2,0.4-0.5,0.4-0.8,0.4c-10.2,1.2-20.2,3.2-30.3,4.6
			c-4.8,0.7-9.6,1.4-14.4,2.2c-0.3,0-0.6,0.1-0.9,0.2c-1,0.1-1.1,0.6-0.6,1.4c2.1,3.4,4.1,6.8,6.1,10.2c2.7,4.5,5.5,9,8.2,13.5
			C330.6,314.8,330.9,315.1,330.7,315.7z M297.5,364.3c0-0.4,0.1-0.7,0.2-1c0.7-8.3,1.5-16.6,2.1-24.8c1.1-13.5,2.2-26.9,3.3-40.4
			c0.1-1.2,0.3-1.3,1.2-0.7c6.2,4,12.6,7.7,18.8,11.5c0.3,0.2,0.8,0.7,1.1,0.3c0.3-0.3-0.1-0.7-0.3-1.1c-3.7-6.1-7.4-12.2-11.1-18.3
			c-1.1-1.8-1.1-1.7,0.9-2c11.3-1.7,22.6-3.5,33.9-5.2c0.4-0.1,0.8,0,1.2-0.4c-0.5-0.4-1-0.4-1.5-0.4c-11.3-1.8-22.7-3.5-34.1-5.3
			c-1.5-0.2-1.5-0.3-0.7-1.6c3.7-6.1,7.4-12.2,11.1-18.3c0.3-0.4,0.6-0.8,0.5-1.4c-0.5-0.1-0.9,0.1-1.3,0.4
			c-4.9,2.9-9.7,5.9-14.6,8.8c-1.3,0.8-2.7,1.6-4,2.5c-0.5,0.3-1.1,0.5-1.1-0.3c0.1-2-0.7-3.8-1-5.8c-0.5-3.7-1-7.4-1.5-11.1
			c-1-7.4-2-14.8-3-22.1c-0.1-0.6-0.1-1.3-0.6-1.8c-0.5,0.3-0.4,0.7-0.4,1.1c-0.5,3.6-1,7.2-1.5,10.8c-1.3,9.6-2.6,19.1-3.9,28.7
			c-0.1,1.2-0.3,1.2-1.3,0.7c-0.3-0.2-0.5-0.4-0.8-0.5c-6-3.7-12-7.4-18-11c-0.3-0.2-0.8-0.6-1.2-0.2c-0.3,0.3,0.2,0.7,0.3,1.1
			c0,0.1,0.1,0.1,0.1,0.2c3.8,6.2,7.6,12.4,11.4,18.7c0.6,1.1,0.6,1.2-0.7,1.4c-11.3,1.7-22.6,3.5-33.9,5.2
			c-0.6,0.1-1.2,0.1-1.8,0.5c0.5,0.4,1,0.4,1.5,0.4c11.3,1.8,22.7,3.5,34.1,5.2c1.4,0.2,1.4,0.3,0.7,1.6
			c-3.8,6.2-7.6,12.4-11.4,18.7c-0.2,0.3-0.6,0.7-0.3,1.1c0.4,0.4,0.8-0.1,1.1-0.3c6.3-3.8,12.6-7.6,18.9-11.5
			c1-0.6,1.2-0.5,1.2,0.6c0.7,8,1.3,16.1,2,24.1c1,12.4,2,24.7,3.1,37C296.8,360.9,296.9,362.6,297.5,364.3z"/>
	</g>
</g>
<g>
	<g>
		<path d="M100.4,385.2h24.2c15.5,0,28,5.5,28,22.6c0,16.5-12.6,23.9-27.5,23.9h-8.7v23.9h-15.9V385.2z M124.1,419.1
			c8.8,0,12.9-3.9,12.9-11.2c0-7.4-4.7-10-13.3-10h-7.3v21.2H124.1z"/>
		<path d="M161.5,420.1c0-23,13-36.2,32-36.2s32,13.3,32,36.2c0,23-13,36.8-32,36.8S161.5,443.1,161.5,420.1z M209.1,420.1
			c0-14.1-6.1-22.4-15.7-22.4s-15.7,8.3-15.7,22.4s6.1,23.1,15.7,23.1S209.1,434.2,209.1,420.1z"/>
		<path d="M238.7,385.2h15.9v57h27.8v13.3h-43.7V385.2z"/>
		<path d="M307.7,385.2h19l22.1,70.4H332l-9.2-35.6c-2-7-3.8-15.4-5.7-22.7h-0.4c-1.7,7.4-3.6,15.7-5.5,22.7l-9.2,35.6h-16.3
			L307.7,385.2z M300.2,426.5h33.9v12.4h-33.9V426.5z"/>
		<path d="M356.5,385.2h25.4c14.9,0,27.2,5.2,27.2,21.9c0,16.2-12.2,23.1-27.2,23.1h-9.4v25.3h-15.9V385.2z M380.6,417.6
			c8.4,0,12.9-3.6,12.9-10.5c0-7-4.5-9.3-12.9-9.3h-8.1v19.8H380.6z M379,426.1l11-10.2l22.5,39.7h-17.8L379,426.1z"/>
		<path d="M422.7,385.2h15.9v70.4h-15.9V385.2z"/>
		<path d="M450.7,446.7l9.1-10.9c5,4.4,11.5,7.4,17.3,7.4c6.6,0,9.9-2.6,9.9-6.8c0-4.4-4-5.9-10.2-8.4l-9.1-3.9
			c-7.3-3-14.2-9-14.2-19.2c0-11.7,10.4-21,25.1-21c8.1,0,16.6,3.2,22.6,9.2l-8,10c-4.6-3.6-9-5.5-14.6-5.5c-5.5,0-9,2.3-9,6.3
			c0,4.3,4.6,5.9,10.7,8.3l9,3.6c8.6,3.5,14,9.2,14,19.1c0,11.7-9.7,21.8-26.5,21.8C467.6,456.9,457.9,453.4,450.7,446.7z"/>
		<path d="M235.5,464.7c0.2,0.1,0.3,0.3,0.3,0.4c0,0.2-0.1,0.3-0.2,0.5c-0.1,0.1-0.3,0.2-0.5,0.3c-0.2,0.1-0.4,0.1-0.6-0.1
			c-0.6-0.4-1.5-0.6-2.9-0.8c-1.3-0.2-3-0.3-4.9-0.3c-2.7,0-5.7,0-9.2,0.2c-3.4,0.1-7.1,0.4-11,0.6c-3.9,0.3-7.9,0.6-12.1,0.9
			c-4.2,0.4-8.4,0.7-12.6,1.1c-0.7,2.2-1.6,4.9-2.6,7.9c-1.1,3-2.2,6.3-3.5,9.8c-1.2,3.5-2.5,7.2-3.9,11c-1.4,3.8-2.7,7.6-4,11.4
			c-1.3,3.8-2.6,7.6-3.8,11.2s-2.2,7.1-3.1,10.3c-0.9,3.2-1.6,6.1-2.1,8.6c-0.5,2.6-0.8,4.6-0.7,6.3c0,0.1,0,0.3,0,0.5
			c0,0.2,0.1,0.4,0.1,0.5c0.1,0.1,0.1,0.3,0.2,0.3c0.1,0.1,0.3,0,0.4-0.2c1.4-1.2,2.5-2.4,3.4-3.7c0.9-1.2,1.8-2.6,2.8-4.1
			c0.1-0.2,0.3-0.3,0.5-0.4c0.2,0,0.4,0,0.5,0.1s0.3,0.2,0.3,0.3c0.1,0.1,0,0.3-0.1,0.5c-0.4,0.6-0.8,1.3-1.4,2
			c-0.5,0.7-1,1.4-1.6,2.2c-0.6,0.7-1.1,1.4-1.8,2.1c-0.6,0.7-1.2,1.3-1.8,1.8c-0.8,0.8-1.5,1.2-2.1,1.2c-0.6,0.1-1.1-0.1-1.5-0.5
			c-0.4-0.4-0.7-1-0.9-1.7c-0.2-0.7-0.3-1.5-0.3-2.3c0.1-2.4,0.5-5.5,1.4-9.2c0.9-3.7,2-7.7,3.3-12c1.3-4.4,2.9-8.9,4.6-13.7
			c1.7-4.8,3.4-9.6,5.1-14.3c1.7-4.7,3.3-9.3,4.9-13.7c1.6-4.4,2.9-8.4,4.1-11.9c-3.7,0.4-7.3,0.7-10.8,1.1c-3.5,0.3-6.8,0.7-10,1
			c-3,0.3-5.7,0.6-8.3,0.9c-2.5,0.3-4.8,0.5-6.8,0.6c-7.7,0.8-12.7,1.1-15,1c-2.2,0.1-3.3,0-3.3-0.4c0-0.5,2.7-1.2,8.1-2.1
			c5.3-0.9,13.3-2.2,23.7-3.9c3.5-0.5,7.3-1.1,11.3-1.8c4.1-0.7,8.4-1.4,13.1-2.1c0.2,0,0.4-0.1,0.7-0.1c0.3,0,0.6,0,0.9,0
			c0.3,0,0.5,0.1,0.7,0.2c0.2,0.1,0.3,0.3,0.2,0.5c-0.1,0.4-0.2,0.8-0.3,1.3c-0.1,0.5-0.3,1.1-0.5,1.9c3.7-0.4,7.3-0.7,11-1
			c3.7-0.3,7.2-0.6,10.7-0.8c3.5-0.2,6.8-0.4,9.9-0.6c3.1-0.1,6-0.2,8.6-0.3c0.8,0,1.7,0,2.9,0c1.2,0,2.4,0,3.7,0.1
			c1.3,0.1,2.5,0.2,3.6,0.4C233.9,464.1,234.8,464.4,235.5,464.7z M179.1,466.3c0.1-0.5,0.3-0.9,0.4-1.3c0.1-0.4,0.2-0.7,0.3-1.1
			c-4.1,0.6-7.9,1.3-11.5,1.8c-3.6,0.6-7,1.1-10.1,1.6c-5.4,0.8-10,1.5-13.9,2.1c-3.9,0.6-7.2,1-9.7,1.4c0.9-0.1,2-0.2,3.1-0.3
			c1.1-0.1,2.3-0.2,3.5-0.4c6.4-0.6,12.7-1.2,19-1.9S172.7,466.9,179.1,466.3z"/>
		<path d="M182.2,516c-0.5,0.4-1.1,0.7-1.7,0.9c-0.6,0.2-1.1,0.3-1.6,0.2c-0.5-0.1-0.9-0.4-1.2-0.9c-0.3-0.5-0.4-1.3-0.4-2.5
			c0-1.1,0.2-2.2,0.6-3.3c0.3-1.1,0.8-2.2,1.4-3.3c0.6-1.1,1.3-2,2.2-2.9c0.8-0.9,1.7-1.7,2.7-2.3c0.6-0.4,1.3-0.7,2-0.9
			c0.7-0.2,1.3-0.4,2-0.4c0.6,0,1.3,0.2,1.8,0.5c0.6,0.3,1.1,0.8,1.5,1.5c0.5-0.7,1-1.3,1.6-1.9c0.6-0.5,1.1-0.8,1.5-1
			c0.4-0.1,0.8,0,1,0.4c0.2,0.4,0.3,1.2,0.1,2.3c-0.1,0.5-0.2,1.1-0.5,1.9c-0.3,0.8-0.6,1.7-0.9,2.6c-0.3,0.9-0.6,1.9-0.9,2.9
			c-0.3,1-0.5,1.9-0.5,2.6c-0.1,1,0,1.7,0.4,2.1c0.4,0.4,1.2,0.3,2.5-0.1c1.1-0.4,2.3-1,3.6-1.8c1.3-0.9,2.5-1.8,3.6-2.8
			c1.2-1,2.2-1.9,3.2-2.8c0.9-0.9,1.6-1.5,2.1-1.8c0.2-0.1,0.4-0.2,0.6-0.2c0.2,0,0.4,0.1,0.5,0.2c0.1,0.1,0.2,0.3,0.2,0.5
			c0,0.2-0.1,0.3-0.3,0.5c-0.6,0.5-1.5,1.2-2.6,2.2c-1.1,1-2.3,2-3.6,3.1c-1.3,1.1-2.7,2.1-4.2,3c-1.4,1-2.8,1.6-4.1,2.1
			s-2.2,0.4-2.9-0.1c-0.6-0.5-1-1.2-1.1-2.2c-0.1-1-0.1-2,0-3.3s0.4-2.4,0.6-3.4c0.2-1,0.4-1.9,0.6-2.6c0.2-0.7,0.3-0.9,0.2-0.8
			c-0.6,1-1.3,2-2,3.1c-0.7,1.1-1.5,2.1-2.4,3.2c-0.9,1-1.8,2-2.7,3C184.2,514.5,183.2,515.3,182.2,516z M190.6,504
			c-0.5-1.1-1.1-1.7-1.9-1.7c-0.8,0-1.6,0.3-2.4,0.9c-0.7,0.5-1.4,1.1-2,1.9s-1.2,1.6-1.8,2.6s-1,1.8-1.4,2.8
			c-0.4,0.9-0.7,1.8-0.8,2.5c-0.2,0.9-0.1,1.5,0.2,1.8c0.3,0.3,0.9,0.2,1.8-0.5c0.9-0.6,1.7-1.4,2.5-2.2c0.8-0.8,1.5-1.7,2.2-2.6
			c0.7-0.9,1.3-1.8,1.9-2.8C189.5,505.8,190.1,504.9,190.6,504z"/>
		<path d="M223.7,483.7c-0.5,1.2-1.1,2.6-1.8,4c-0.7,1.5-1.4,3-2.3,4.6c0.9-0.1,1.8-0.2,2.9-0.3s2.2-0.2,3.2-0.2
			c1.1-0.1,2.1-0.1,3.2,0c1,0,1.9,0.1,2.7,0.3c0.4,0.1,0.8,0.3,1.2,0.5c0.4,0.2,0.4,0.5,0.2,1.1c-0.1,0.2-0.4,0.4-0.9,0.6
			c-0.5,0.2-1,0.4-1.5,0.5c-0.6,0.2-1.1,0.3-1.6,0.5c-0.5,0.2-0.9,0.3-1.3,0.4c-0.2,0.1-0.4,0.1-0.6,0s-0.3-0.2-0.3-0.4
			c-0.1-0.1,0-0.3,0-0.5c0.1-0.2,0.2-0.3,0.4-0.4c0.6-0.2,1.2-0.4,1.8-0.6c0.6-0.2,1.2-0.4,1.8-0.5c-0.8-0.1-1.6-0.2-2.7-0.2
			c-1,0-2.1,0-3.2,0.1s-2.2,0.1-3.2,0.2c-1.1,0.1-2.1,0.2-2.9,0.3c-0.1,0.2-0.2,0.3-0.3,0.5c-0.1,0.1-0.2,0.3-0.3,0.5
			c-1,1.9-2.2,3.7-3.3,5.6c-1.2,1.9-2.4,3.7-3.6,5.4c-0.3,0.7-0.6,1.6-0.9,2.5c-0.3,1-0.5,1.9-0.7,2.9c-0.2,1-0.2,1.8-0.2,2.6
			c0,0.8,0.3,1.5,0.7,1.9c0.4,0.5,1.1,0.7,2,0.8c0.9,0,2.1-0.3,3.7-1c1.2-0.5,2.4-1.2,3.7-1.9c1.3-0.8,2.5-1.6,3.8-2.6
			c1.2-0.9,2.4-1.9,3.6-2.8c1.2-1,2.2-1.9,3.2-2.7c0.2-0.1,0.4-0.2,0.6-0.2c0.2,0,0.4,0.1,0.5,0.2c0.1,0.1,0.2,0.3,0.2,0.4
			c0,0.2-0.1,0.3-0.2,0.5c-1,0.9-2.1,1.8-3.3,2.8c-1.2,1-2.4,2-3.7,2.9c-1.3,0.9-2.6,1.8-3.9,2.6c-1.3,0.8-2.6,1.5-3.8,2
			c-2.2,0.9-4,1.4-5.3,1.4c-1.3,0-2.3-0.3-3.1-0.9c-0.7-0.6-1.1-1.5-1.2-2.7c-0.1-1.2-0.1-2.4,0.2-3.9c0.2-1.4,0.6-3,1.1-4.5
			s1.1-3.1,1.7-4.6c0.6-1.5,1.2-2.8,1.8-4.1c0.6-1.2,1-2.2,1.4-3c-1.5,0.2-3,0.4-4.5,0.6c-1.5,0.2-3.2,0.4-4.9,0.7
			c-0.3,0-0.4,0-0.6-0.1c-0.1-0.1-0.2-0.3-0.2-0.4s0.1-0.3,0.2-0.5c0.1-0.1,0.3-0.2,0.5-0.3c1.8-0.3,3.6-0.5,5.3-0.7
			c1.7-0.2,3.3-0.4,4.8-0.6c1-1.9,2-3.9,3.1-5.9c1.1-2,2.3-3.9,3.6-5.6c0.8-1,1.5-1.8,2.2-2.3c0.7-0.5,1.2-0.6,1.6-0.5
			c0.4,0.1,0.6,0.6,0.5,1.4C224.5,481,224.2,482.2,223.7,483.7z M213.9,499.4c0.5-0.8,1.1-1.7,1.6-2.6c0.5-0.9,1-1.7,1.5-2.6
			c0-0.1,0.1-0.1,0.1-0.2c0-0.1,0-0.1,0.1-0.2c-0.1,0-0.2,0.1-0.3,0.1s-0.2,0-0.3,0.1c-0.5,0.9-0.9,1.8-1.3,2.7
			C214.7,497.6,214.3,498.5,213.9,499.4z M217.9,492.5c0.9-1.6,1.7-3.2,2.5-4.8c0.8-1.6,1.5-3.2,2.1-4.9c-0.9,1.6-1.8,3.2-2.7,4.8
			c-0.9,1.6-1.7,3.3-2.5,4.9c0.1,0,0.2,0,0.4,0C217.7,492.5,217.8,492.5,217.9,492.5z"/>
		<path d="M245.5,483.7c-0.5,1.2-1.1,2.6-1.8,4c-0.7,1.5-1.4,3-2.3,4.6c0.9-0.1,1.8-0.2,2.9-0.3s2.2-0.2,3.2-0.2
			c1.1-0.1,2.1-0.1,3.2,0c1,0,1.9,0.1,2.7,0.3c0.4,0.1,0.8,0.3,1.2,0.5c0.4,0.2,0.4,0.5,0.2,1.1c-0.1,0.2-0.4,0.4-0.9,0.6
			c-0.5,0.2-1,0.4-1.5,0.5c-0.6,0.2-1.1,0.3-1.6,0.5c-0.5,0.2-0.9,0.3-1.3,0.4c-0.2,0.1-0.4,0.1-0.6,0s-0.3-0.2-0.3-0.4
			c-0.1-0.1,0-0.3,0-0.5c0.1-0.2,0.2-0.3,0.4-0.4c0.6-0.2,1.2-0.4,1.8-0.6c0.6-0.2,1.2-0.4,1.8-0.5c-0.8-0.1-1.6-0.2-2.7-0.2
			c-1,0-2.1,0-3.2,0.1s-2.2,0.1-3.2,0.2c-1.1,0.1-2.1,0.2-2.9,0.3c-0.1,0.2-0.2,0.3-0.3,0.5c-0.1,0.1-0.2,0.3-0.3,0.5
			c-1,1.9-2.2,3.7-3.3,5.6c-1.2,1.9-2.4,3.7-3.6,5.4c-0.3,0.7-0.6,1.6-0.9,2.5c-0.3,1-0.5,1.9-0.7,2.9c-0.2,1-0.2,1.8-0.2,2.6
			c0,0.8,0.3,1.5,0.7,1.9c0.4,0.5,1.1,0.7,2,0.8c0.9,0,2.1-0.3,3.7-1c1.2-0.5,2.4-1.2,3.7-1.9c1.3-0.8,2.5-1.6,3.8-2.6
			c1.2-0.9,2.4-1.9,3.6-2.8c1.2-1,2.2-1.9,3.2-2.7c0.2-0.1,0.4-0.2,0.6-0.2c0.2,0,0.4,0.1,0.5,0.2c0.1,0.1,0.2,0.3,0.2,0.4
			c0,0.2-0.1,0.3-0.2,0.5c-1,0.9-2.1,1.8-3.3,2.8c-1.2,1-2.4,2-3.7,2.9c-1.3,0.9-2.6,1.8-3.9,2.6c-1.3,0.8-2.6,1.5-3.8,2
			c-2.2,0.9-4,1.4-5.3,1.4c-1.3,0-2.3-0.3-3.1-0.9c-0.7-0.6-1.1-1.5-1.2-2.7c-0.1-1.2-0.1-2.4,0.2-3.9c0.2-1.4,0.6-3,1.1-4.5
			s1.1-3.1,1.7-4.6c0.6-1.5,1.2-2.8,1.8-4.1c0.6-1.2,1-2.2,1.4-3c-1.5,0.2-3,0.4-4.5,0.6c-1.5,0.2-3.2,0.4-4.9,0.7
			c-0.3,0-0.4,0-0.6-0.1c-0.1-0.1-0.2-0.3-0.2-0.4s0.1-0.3,0.2-0.5c0.1-0.1,0.3-0.2,0.5-0.3c1.8-0.3,3.6-0.5,5.3-0.7
			c1.7-0.2,3.3-0.4,4.8-0.6c1-1.9,2-3.9,3.1-5.9c1.1-2,2.3-3.9,3.6-5.6c0.8-1,1.5-1.8,2.2-2.3c0.7-0.5,1.2-0.6,1.6-0.5
			c0.4,0.1,0.6,0.6,0.5,1.4C246.3,481,246,482.2,245.5,483.7z M235.8,499.4c0.5-0.8,1.1-1.7,1.6-2.6c0.5-0.9,1-1.7,1.5-2.6
			c0-0.1,0.1-0.1,0.1-0.2c0-0.1,0-0.1,0.1-0.2c-0.1,0-0.2,0.1-0.3,0.1s-0.2,0-0.3,0.1c-0.5,0.9-0.9,1.8-1.3,2.7
			C236.6,497.6,236.1,498.5,235.8,499.4z M239.7,492.5c0.9-1.6,1.7-3.2,2.5-4.8c0.8-1.6,1.5-3.2,2.1-4.9c-0.9,1.6-1.8,3.2-2.7,4.8
			c-0.9,1.6-1.7,3.3-2.5,4.9c0.1,0,0.2,0,0.4,0C239.5,492.5,239.6,492.5,239.7,492.5z"/>
		<path d="M261.2,512c0.6,0.1,1.4,0,2.3-0.3c1.5-0.4,3.2-1.2,5-2.3c1.9-1.1,3.6-2.5,5.2-4c0.2-0.1,0.4-0.2,0.5-0.2
			c0.2,0,0.3,0,0.5,0.1c0.1,0.1,0.2,0.2,0.2,0.4c0,0.2-0.1,0.3-0.2,0.5c-1.7,1.6-3.5,3-5.5,4.2c-2,1.2-3.8,2-5.4,2.5
			c-0.6,0.2-1.2,0.3-1.8,0.4c-0.6,0.1-1.2,0-1.7-0.2c-0.8,1.1-1.7,2-2.7,2.8c-1,0.8-2,1.3-3,1.6c-1,0.3-1.9,0.3-2.7,0
			c-0.8-0.3-1.4-0.9-1.8-1.9c-0.4-0.9-0.5-1.8-0.5-2.9c0-1.1,0.2-2.2,0.5-3.3c0.3-1.1,0.7-2.2,1.3-3.3c0.5-1.1,1.1-2,1.7-2.8
			c1.1-1.4,2.2-2.5,3.4-3.1c1.2-0.6,2.2-0.9,3.2-0.8c1,0.1,1.8,0.4,2.5,1.1c0.7,0.6,1.1,1.5,1.4,2.6c0.2,1.1,0.1,2.4-0.2,3.9
			C263.1,508.6,262.4,510.3,261.2,512z M262.4,503.4c-0.3-0.9-0.7-1.6-1.2-1.9c-0.5-0.3-1-0.4-1.5-0.2c-0.6,0.1-1.1,0.5-1.7,1
			c-0.6,0.5-1.2,1.1-1.7,1.8c-0.5,0.6-1,1.3-1.4,2.1c-0.4,0.8-0.7,1.5-1,2.3c-0.3,0.8-0.5,1.6-0.6,2.4c-0.1,0.8-0.2,1.5-0.2,2.2
			c0,1.4,0.2,2.4,0.7,2.8c0.4,0.4,1,0.5,1.6,0.2c0.6-0.2,1.3-0.7,2-1.4c0.7-0.7,1.4-1.4,1.9-2.2c-0.4-0.5-0.6-1.2-0.5-2.1
			c0.1-0.9,0.3-1.9,0.6-2.8c0.4-1,0.8-1.8,1.3-2.6C261.3,504.2,261.9,503.7,262.4,503.4z M262.6,504.8c-0.3,0.3-0.6,0.7-0.9,1.2
			c-0.3,0.6-0.6,1.2-0.8,1.8c-0.2,0.6-0.4,1.2-0.6,1.8c-0.1,0.6-0.2,1.1-0.1,1.4c0.3-0.4,0.5-0.9,0.8-1.4c0.3-0.5,0.5-1.1,0.8-1.6
			c0.2-0.6,0.4-1.1,0.6-1.7C262.6,505.7,262.6,505.2,262.6,504.8z"/>
		<path d="M283.1,512c0.6,0.1,1.4,0,2.3-0.3c1.5-0.4,3.2-1.2,5-2.3c1.9-1.1,3.6-2.5,5.2-4c0.2-0.1,0.4-0.2,0.5-0.2
			c0.2,0,0.3,0,0.5,0.1c0.1,0.1,0.2,0.2,0.2,0.4c0,0.2-0.1,0.3-0.2,0.5c-1.7,1.6-3.5,3-5.5,4.2c-2,1.2-3.8,2-5.4,2.5
			c-0.6,0.2-1.2,0.3-1.8,0.4c-0.6,0.1-1.2,0-1.7-0.2c-0.8,1.1-1.7,2-2.7,2.8c-1,0.8-2,1.3-3,1.6c-1,0.3-1.9,0.3-2.7,0
			c-0.8-0.3-1.4-0.9-1.8-1.9c-0.4-0.9-0.5-1.8-0.5-2.9c0-1.1,0.2-2.2,0.5-3.3c0.3-1.1,0.7-2.2,1.3-3.3c0.5-1.1,1.1-2,1.7-2.8
			c1.1-1.4,2.2-2.5,3.4-3.1c1.2-0.6,2.2-0.9,3.2-0.8c1,0.1,1.8,0.4,2.5,1.1c0.7,0.6,1.1,1.5,1.4,2.6c0.2,1.1,0.1,2.4-0.2,3.9
			C284.9,508.6,284.2,510.3,283.1,512z M284.2,503.4c-0.3-0.9-0.7-1.6-1.2-1.9c-0.5-0.3-1-0.4-1.5-0.2c-0.6,0.1-1.1,0.5-1.7,1
			c-0.6,0.5-1.2,1.1-1.7,1.8c-0.5,0.6-1,1.3-1.4,2.1c-0.4,0.8-0.7,1.5-1,2.3c-0.3,0.8-0.5,1.6-0.6,2.4c-0.1,0.8-0.2,1.5-0.2,2.2
			c0,1.4,0.2,2.4,0.7,2.8c0.4,0.4,1,0.5,1.6,0.2c0.6-0.2,1.3-0.7,2-1.4c0.7-0.7,1.4-1.4,1.9-2.2c-0.4-0.5-0.6-1.2-0.5-2.1
			c0.1-0.9,0.3-1.9,0.6-2.8c0.4-1,0.8-1.8,1.3-2.6C283.2,504.2,283.7,503.7,284.2,503.4z M284.5,504.8c-0.3,0.3-0.6,0.7-0.9,1.2
			c-0.3,0.6-0.6,1.2-0.8,1.8c-0.2,0.6-0.4,1.2-0.6,1.8c-0.1,0.6-0.2,1.1-0.1,1.4c0.3-0.4,0.5-0.9,0.8-1.4c0.3-0.5,0.5-1.1,0.8-1.6
			c0.2-0.6,0.4-1.1,0.6-1.7C284.4,505.7,284.5,505.2,284.5,504.8z"/>
		<path d="M362.4,486.3c-0.2,0.1-0.4,0.2-0.6,0.2s-0.4-0.1-0.5-0.2c-0.3-0.3-0.2-0.6,0.2-0.9c1.8-1.4,3.2-2.9,4.4-4.6s2-3.3,2.5-5
			c0.5-1.6,0.7-3.2,0.5-4.7c-0.2-1.5-0.7-2.7-1.5-3.8c-0.8-1-2-1.8-3.6-2.2c-1.5-0.4-3.4-0.4-5.7,0.1c-3.1,0.6-6.2,1.9-9.2,3.9
			s-5.9,4.3-8.7,7s-5.4,5.8-7.8,9.1c-2.4,3.3-4.7,6.6-6.7,9.9s-3.8,6.5-5.3,9.6c-1.5,3.1-2.7,5.8-3.6,8.2c-1.2,3.2-2.2,6.3-2.9,9.3
			c-0.7,3-1.2,5.8-1.3,8.5c-0.2,3.3,0.1,6,0.7,8.2c0.7,2.1,1.6,3.8,2.9,5c1.3,1.2,2.9,2,4.7,2.3c1.8,0.3,3.8,0.4,6,0
			s4.4-0.9,6.8-1.8c2.4-0.9,4.8-2,7.1-3.3s4.7-2.7,7-4.3c2.3-1.6,4.4-3.2,6.4-4.9c3.1-2.7,6.1-5.4,8.9-8.2c2.8-2.8,5.4-5.5,7.6-8
			c2.2-2.5,4.1-4.7,5.6-6.6c1.5-1.9,2.6-3.2,3.1-4c0.1-0.2,0.3-0.3,0.5-0.3c0.2,0,0.4,0,0.5,0.1c0.1,0.1,0.2,0.2,0.3,0.4
			c0.1,0.2,0,0.4-0.1,0.6c-0.6,0.8-1.6,2.1-3.2,4c-1.5,1.9-3.4,4.1-5.7,6.6c-2.2,2.5-4.8,5.2-7.6,8c-2.8,2.9-5.9,5.6-9,8.3
			c-1.7,1.4-3.6,2.9-5.9,4.6c-2.3,1.6-4.7,3.2-7.3,4.7c-2.6,1.5-5.2,2.8-8,3.9c-2.7,1.1-5.4,1.9-8,2.2c-2.6,0.4-5.1,0.2-7.4-0.4
			s-4.3-1.9-6-3.9c-1.3-1.5-2.3-3.4-2.8-5.6c-0.5-2.2-0.7-4.7-0.6-7.5c0.1-2.7,0.6-5.6,1.3-8.6s1.7-6.2,3-9.5c0.9-2.3,2-4.9,3.4-7.8
			c1.4-2.9,3.1-6,5-9.2c1.9-3.2,4-6.4,6.3-9.6c2.3-3.2,4.8-6.2,7.4-9c2.6-2.8,5.4-5.3,8.3-7.4c2.9-2.2,5.9-3.8,8.9-4.9
			c3.1-1.2,5.9-1.7,8.2-1.6c2.3,0.1,4.2,0.6,5.7,1.5c1.5,0.9,2.5,2.2,3.1,3.9c0.6,1.6,0.7,3.4,0.4,5.4c-0.3,2-1.2,4-2.4,6.1
			C366.5,482.4,364.7,484.4,362.4,486.3z"/>
		<path d="M382.6,505.8c-0.4,1.3-0.7,2.6-0.9,3.7c-0.2,1.1-0.3,2.2-0.3,3.1c0,1.7,0.3,2.7,1,3.3c0.7,0.5,2,0.4,3.8-0.4
			c1.2-0.5,2.4-1.2,3.7-1.9c1.3-0.8,2.5-1.6,3.8-2.6c1.3-0.9,2.5-1.9,3.6-2.8s2.2-1.9,3.2-2.7c0.2-0.1,0.4-0.2,0.6-0.2
			c0.2,0,0.4,0.1,0.5,0.2c0.1,0.1,0.2,0.3,0.2,0.4s-0.1,0.3-0.3,0.5c-1,0.9-2.1,1.8-3.3,2.8c-1.2,1-2.4,2-3.7,2.9
			c-1.3,0.9-2.6,1.8-3.9,2.6c-1.3,0.8-2.6,1.5-3.8,2c-1.7,0.8-3.2,1.1-4.3,1.1c-1.1-0.1-2-0.4-2.6-1c-0.6-0.6-1-1.5-1.2-2.5
			c-0.2-1.1-0.2-2.3-0.1-3.6c0.1-1.6,0.6-3.7,1.3-6.2c0.8-2.5,1.7-5.2,2.9-8.2c1.2-2.9,2.4-5.9,3.9-9s2.9-5.9,4.4-8.6
			c1.5-2.7,3-5,4.4-7c1.5-2,2.8-3.5,4-4.3c0.6-0.4,1.1-0.6,1.5-0.6c0.4,0.1,0.7,0.3,0.9,0.7c0.2,0.4,0.3,1,0.4,1.7
			c0,0.7-0.1,1.5-0.2,2.4c-0.3,1.5-0.9,3.2-1.6,5.1s-1.7,4-2.7,6.2s-2.2,4.4-3.5,6.6c-1.3,2.2-2.6,4.4-3.9,6.5c-1.3,2.1-2.7,4-4,5.7
			C385,503.3,383.8,504.7,382.6,505.8z M383.5,502.8c1.5-1.8,3.1-4,4.8-6.5c1.7-2.5,3.3-5.1,4.8-7.9c1.5-2.7,2.9-5.4,4.1-8.1
			c1.2-2.6,2.1-5,2.7-7c0.1-0.4,0.2-0.9,0.4-1.4c0.1-0.5,0.2-0.9,0.3-1.3c0.1-0.4,0-0.6-0.1-0.8c-0.1-0.1-0.3,0-0.6,0.2
			c-0.8,0.8-1.7,1.9-2.7,3.6c-1,1.6-2.1,3.5-3.2,5.6c-1.1,2.1-2.2,4.3-3.3,6.7c-1.1,2.4-2.1,4.6-3.1,6.8c-0.9,2.2-1.8,4.2-2.5,5.9
			C384.4,500.4,383.9,501.8,383.5,502.8z"/>
		<path d="M411.5,511c-0.3-1.3-0.3-3.1,0.1-5.4c-0.8,1.4-1.7,2.7-2.6,4.1c-0.9,1.4-1.9,2.7-3,4c-0.5,0.6-1.1,1.2-1.8,1.8
			s-1.3,1.1-1.9,1.4c-0.6,0.3-1.2,0.5-1.7,0.3c-0.5-0.1-0.9-0.6-1.1-1.5c-0.3-1-0.4-2.2-0.3-3.5c0.1-1.3,0.3-2.6,0.6-3.9
			c0.3-1.3,0.7-2.6,1.1-3.9c0.4-1.3,0.9-2.4,1.3-3.4c0.1-0.4,0.4-0.7,0.9-1c0.4-0.3,0.9-0.4,1.3-0.4s0.8,0,1.1,0.2
			c0.3,0.2,0.3,0.5,0.1,1.1c-0.4,0.9-0.8,1.9-1.2,3c-0.4,1.1-0.7,2.3-1,3.5c-0.3,1.2-0.6,2.4-0.8,3.5c-0.2,1.2-0.4,2.2-0.5,3.1
			c-0.1,0.7,0.1,1.1,0.5,1.1s1.1-0.7,2.3-2.1c0.8-0.9,1.5-1.8,2.3-2.8c0.8-1,1.5-2.1,2.2-3.2c0.7-1.1,1.4-2.2,2-3.3
			c0.6-1.1,1.2-2.2,1.6-3.1c0.3-0.5,0.6-0.8,1-0.9c0.4-0.1,0.8-0.1,1.1,0c0.4,0.1,0.6,0.3,0.9,0.6c0.2,0.3,0.3,0.5,0.2,0.8
			c0,0.3-0.2,0.8-0.4,1.6c-0.2,0.8-0.5,1.6-0.7,2.6c-0.2,1-0.4,1.9-0.5,2.9c-0.1,1-0.2,1.8-0.1,2.5c0.1,0.8,0.5,1.3,1,1.5
			c0.5,0.1,1.2,0.1,1.9-0.2c0.7-0.3,1.5-0.7,2.4-1.3c0.9-0.6,1.7-1.2,2.5-1.9c0.8-0.7,1.6-1.3,2.2-1.9c0.7-0.6,1.2-1,1.5-1.2
			c0.2-0.1,0.4-0.2,0.6-0.2c0.2,0,0.3,0.1,0.4,0.2c0.1,0.1,0.2,0.3,0.2,0.5c0,0.2-0.1,0.3-0.3,0.5c-0.5,0.4-1.3,1-2.1,1.7
			c-0.9,0.7-1.8,1.5-2.9,2.2c-1,0.8-2.1,1.5-3.2,2.1c-1.1,0.6-2.1,1-3.1,1.2c-1,0.2-1.8,0.1-2.5-0.3
			C412.4,513,411.8,512.2,411.5,511z"/>
		<path d="M428,510c0.7-1.2,1.5-2.3,2.3-3.5c0.8-1.2,1.8-2.2,2.7-3.2c0.5-0.5,1.1-1.1,1.8-1.7s1.5-1.1,2.3-1.5
			c0.8-0.4,1.6-0.6,2.3-0.5c0.7,0,1.3,0.4,1.8,1.2c0.3,0.5,0.5,1.1,0.5,1.8c0,0.7,0,1.4-0.1,2.1c-0.1,0.7-0.3,1.4-0.5,2.1
			c-0.2,0.7-0.5,1.3-0.7,1.9c1.3-0.6,2.6-1.1,4.1-1.7c1.5-0.5,3-1.1,4.7-1.6c0.3-0.1,0.4-0.1,0.6,0c0.1,0.1,0.2,0.2,0.3,0.4
			c0,0.1,0,0.3-0.1,0.5c-0.1,0.2-0.2,0.3-0.5,0.4c-3.5,1-6.9,2.3-10.2,3.8c-0.4,0.7-0.9,1.4-1.5,2.2c-0.6,0.7-1.2,1.4-1.9,2
			c-0.7,0.6-1.4,1.2-2.2,1.7c-0.8,0.5-1.6,0.9-2.5,1.1c-1.3,0.4-2,0.3-2.2-0.2c-0.2-0.5,0.1-1.2,0.9-2c0.8-0.8,1.8-1.6,2.8-2.3
			s2-1.4,3.1-2c0.9-1.7,1.6-3.3,2-4.9c0.7-2.5,0.8-4,0.3-4.4c-0.5-0.4-1.8,0.4-3.9,2.5c-0.6,0.6-1.3,1.4-1.9,2.2
			c-0.6,0.8-1.3,1.7-1.9,2.6c-0.6,0.9-1.2,1.8-1.7,2.7s-1,1.7-1.3,2.5c0,0.1,0,0.4-0.1,0.8s-0.2,1-0.3,1.6c-0.1,0.6-0.2,1.1-0.3,1.6
			s-0.2,0.7-0.2,0.8c-0.2,0.3-0.4,0.5-0.8,0.5s-0.7,0-1.1-0.1c-0.4-0.1-0.7-0.3-0.9-0.5c-0.3-0.2-0.4-0.4-0.4-0.6
			c0.1-1.2,0.4-2.9,0.8-4.9c0.4-2.1,0.9-4.3,1.5-6.8c0.6-2.4,1.3-4.9,2.1-7.5c0.8-2.6,1.6-5.1,2.5-7.4c0.6-1.5,1.3-3.2,2.2-5.3
			c0.9-2.1,1.9-4.2,3.1-6.3c1.1-2.1,2.3-4.2,3.6-6.1c1.3-1.9,2.5-3.4,3.8-4.5c1-0.9,1.8-1.4,2.5-1.6s1.2,0,1.5,0.5s0.5,1.1,0.5,2.1
			c0,0.9-0.2,2-0.6,3.3c-0.3,1.1-0.8,2.4-1.3,3.8c-0.6,1.4-1.2,2.9-1.9,4.6c-0.7,1.6-1.5,3.3-2.3,5c-0.8,1.7-1.7,3.4-2.7,5.1
			c-1.5,2.8-3.2,5.4-4.8,7.9c-1.7,2.4-3.2,4.4-4.8,5.9c-0.2,0.8-0.4,1.5-0.5,2.2C428.3,508.7,428.2,509.4,428,510z M429.7,503.1
			c1.3-1.5,2.5-3.2,3.8-5.2c1.3-2,2.5-4.1,3.8-6.3c0.9-1.7,1.8-3.3,2.6-5c0.8-1.7,1.6-3.3,2.3-4.9c0.7-1.6,1.3-3.1,1.9-4.5
			s1-2.7,1.3-3.8c0.1-0.5,0.3-1.1,0.5-1.7c0.2-0.6,0.3-1.1,0.2-1.5c0-0.3-0.2-0.4-0.5-0.2c-0.3,0.2-0.9,0.9-1.8,2.1
			c-2.2,3.1-4.2,6.3-5.9,9.7c-1.7,3.4-3.3,6.9-4.6,10.3c-0.8,1.9-1.4,3.8-2,5.6C430.8,499.6,430.2,501.3,429.7,503.1z M430.8,516.2
			c0.1,0,0.2,0,0.3-0.1c1.1-0.6,2.1-1.5,3.1-2.6v-0.1c-0.5,0.4-1.1,0.8-1.8,1.3C431.8,515.3,431.2,515.8,430.8,516.2z"/>
	</g>
</g>
</svg>
