<?xml version="1.0" encoding="utf-8"?>
<!-- Generator: Adobe Illustrator 27.7.0, SVG Export Plug-In . SVG Version: 6.00 Build 0)  -->
<svg version="1.1" id="Capa_1" xmlns="http://www.w3.org/2000/svg" xmlns:xlink="http://www.w3.org/1999/xlink" x="0px" y="0px"
	 viewBox="0 0 595.28 841.89" enable-background="new 0 0 595.28 841.89" xml:space="preserve">
<g>
	<g>
		<path d="M440.17,487.41c-9.36-5.72-18.27-11.18-27.2-16.61c-25.9-15.74-51.83-31.43-77.68-47.26c-3.78-2.32-4.7-0.59-4.97,2.71
			c-1.01,11.95-1.94,23.9-2.94,35.85c-4.26,50.63-8.6,101.26-12.81,151.9c-3.96,47.65-7.78,95.31-11.68,142.96
			c-1.25,15.25-2.53,30.51-4.91,45.83c-0.59-6.23-1.25-12.45-1.77-18.69c-5.68-68.4-11.37-136.8-16.99-205.21
			c-4.14-50.31-8.2-100.63-12.27-150.94c-0.52-6.48-1.12-6.82-6.68-3.45c-33.19,20.11-66.37,40.22-99.57,60.32
			c-1.08,0.65-2.05,1.78-4.04,1.16c1.13-4.06,3.92-7.2,5.99-10.64c18.88-31.4,37.83-62.77,56.94-94.04c2.73-4.46,0.28-5.2-3.09-5.72
			c-15.97-2.47-31.95-4.85-47.92-7.3c-47.41-7.27-94.83-14.56-142.24-21.87c-1.75-0.27-3.7-0.08-5.3-1.85
			c1.93-1.72,4.34-1.58,6.53-1.91c54.34-8.35,108.68-16.66,163.02-24.99c8.56-1.31,17.12-2.61,25.67-3.99
			c5.08-0.82,5.55-1.85,3.02-6.05c-20.5-33.93-41.01-67.85-61.49-101.79c-0.58-0.96-0.95-2.06-1.47-3.19
			c2.39-0.98,3.64,0.77,5.05,1.66c32.58,20.49,65.71,40.06,98.67,59.91c6.28,3.78,6.62,3.55,7.7-4.37
			c3.61-26.41,7.16-52.82,10.74-79.24c5.71-42.09,11.43-84.19,17.15-126.28c0.75-5.53,0.75-11.19,3.43-16.54
			c1.2,8.85,2.41,17.7,3.61,26.55c5.29,38.96,10.48,77.93,15.9,116.87c3.37,24.25,5.69,48.64,10.08,72.75
			c0.47,2.6,0.26,5.33,0.59,7.97c0.63,5.09,1.78,5.6,6.2,3.04c25.81-14.92,51.25-30.46,76.6-46.14c7.93-4.91,15.83-9.87,23.79-14.74
			c1.34-0.82,2.52-2.24,4.43-1.8c0.78,1.55-0.36,2.57-1,3.62c-20.38,33.61-40.78,67.21-61.18,100.81c-3.09,5.1-2.71,6.01,3.16,6.91
			c56.97,8.77,113.93,17.52,170.91,26.27c7.08,1.09,14.18,2.04,21.26,3.1c1.56,0.23,3.28,0.14,4.58,1.38
			c-0.91,1.66-2.35,1.54-3.59,1.69c-43.17,5.29-85.89,13.58-128.94,19.68c-20.45,2.9-40.85,6.14-61.27,9.23
			c-1.32,0.2-2.62,0.51-3.94,0.67c-4.33,0.54-4.78,2.43-2.58,6.02c8.78,14.35,17.35,28.82,26.09,43.2
			c11.6,19.08,23.28,38.1,34.9,57.16C439.48,483.4,440.78,484.64,440.17,487.41z M298.98,693.67c0.25-1.45,0.62-2.9,0.74-4.36
			c3.06-35.18,6.19-70.36,9.12-105.55c4.77-57.27,9.41-114.55,14.1-171.83c0.4-4.93,1.27-5.39,5.32-2.77
			c26.3,17,53.48,32.56,80.13,48.99c1.44,0.89,3.22,2.82,4.8,1.16c1.26-1.32-0.37-3.1-1.2-4.47
			c-15.73-25.91-31.43-51.83-47.28-77.66c-4.57-7.45-4.75-7.27,4-8.61c48.08-7.39,96.16-14.81,144.23-22.25
			c1.65-0.26,3.53-0.15,4.96-1.75c-2.19-1.52-4.42-1.46-6.5-1.78c-48.23-7.48-96.48-14.92-144.72-22.36
			c-6.41-0.99-6.4-1.18-2.86-6.98c15.77-25.89,31.48-51.81,47.19-77.74c1.08-1.78,2.35-3.57,2.03-5.91
			c-2.23-0.3-3.84,0.61-5.38,1.54c-20.66,12.49-41.31,25.01-61.95,37.54c-5.69,3.46-11.31,7.05-17.01,10.51
			c-1.96,1.19-4.72,2.3-4.54-1.41c0.41-8.56-3.1-16.31-4.26-24.52c-2.22-15.67-4.3-31.36-6.4-47.04
			c-4.2-31.37-8.37-62.74-12.59-94.1c-0.36-2.69-0.56-5.5-2.39-7.82c-1.96,1.23-1.63,3.06-1.85,4.64
			c-2.13,15.34-4.27,30.69-6.34,46.04c-5.48,40.61-10.92,81.22-16.37,121.83c-0.65,4.88-1.29,5.23-5.53,2.75
			c-1.15-0.67-2.23-1.46-3.37-2.16c-25.57-15.64-51.13-31.28-76.74-46.86c-1.45-0.88-3.43-2.62-4.9-0.96
			c-1.13,1.28,0.73,2.99,1.38,4.47c0.13,0.3,0.34,0.57,0.51,0.86c16.12,26.45,32.25,52.9,48.37,79.36c2.72,4.46,2.44,5.08-2.81,5.89
			c-48.08,7.4-96.17,14.78-144.25,22.19c-2.51,0.39-5.18,0.39-7.53,2.23c2.18,1.61,4.41,1.54,6.51,1.87
			c48.24,7.46,96.49,14.88,144.73,22.33c6.08,0.94,6.12,1.38,2.79,6.81c-16.2,26.4-32.33,52.84-48.45,79.29
			c-0.82,1.35-2.52,3.14-1.26,4.45c1.59,1.66,3.34-0.32,4.79-1.2c26.78-16.22,53.54-32.49,80.3-48.75c4.33-2.63,4.87-2.33,5.27,2.58
			c2.8,34.2,5.63,68.39,8.46,102.58c4.35,52.46,8.7,104.91,13.06,157.37C295.93,679.34,296.24,686.64,298.98,693.67z"/>
	</g>
</g>
</svg>
